<svg id="Layer_1" data-name="Layer 1" xmlns="http://www.w3.org/2000/svg" viewBox="0 0 494.01 230.54"><defs><style>.cls-1{fill:#2ecc71;}.cls-2{fill:#60e294;}.cls-3{fill:#34495e;}</style></defs><title>canopy-analytics-logo</title><path class="cls-1" d="M116.33,50.58h-.12c-12,1-25.86,4.5-40.06,10.08a1.24,1.24,0,0,0-.74.82,1.21,1.21,0,0,0,.21,1.07c1.31,1.73,5.31,7,4.7,9.38-.09.35-.32.86-1.27,1.29a4.4,4.4,0,0,1-1.67.47c-1,0-1.36-1.41-2-4.63A41.91,41.91,0,0,0,73.86,63a1.23,1.23,0,0,0-.66-.72,1.25,1.25,0,0,0-.5-.11,1.37,1.37,0,0,0-.48.1c-5.66,2.37-11.26,5-16.65,7.9a1.2,1.2,0,0,0-.63.84,1.24,1.24,0,0,0,.25,1c3.44,4.26,9.86,12.19,9,15.81a2.66,2.66,0,0,1-1.76,1.85,5.74,5.74,0,0,1-2.21.61c-1.47,0-2-1.75-2.8-6a39,39,0,0,0-3.72-11.67A1.25,1.25,0,0,0,53,72a1.2,1.2,0,0,0-.94.11A157.83,157.83,0,0,0,30.37,86.48a1.24,1.24,0,0,0-.46,1,1.21,1.21,0,0,0,.58,1c8.2,5.1,17,10.91,17.39,15.36a4.07,4.07,0,0,1-1.61,3.4c-1.34,1.23-2.46,1.85-3.31,1.85-1.69,0-3.19-2.71-5.08-6.15-2.24-4.06-5-9.11-9.9-13.15a1.22,1.22,0,0,0-1.6,0,75.26,75.26,0,0,0-11.48,12.3,43.62,43.62,0,0,0-6,11.7,1.26,1.26,0,0,0,.11,1,1.23,1.23,0,0,0,.84.58c10.83,2,22.59,4.46,25,9.26a5.16,5.16,0,0,1-.28,4.75c-1.76,3.65-3.16,4.08-4.06,4.08-2,0-4.67-2.26-7.81-4.86-3.6-3-8.07-6.71-13.81-9.2a1.16,1.16,0,0,0-.49-.1,1.19,1.19,0,0,0-.58.15,1.22,1.22,0,0,0-.63.86c-2.11,11.81.29,23.6,6.28,30.76a17,17,0,0,0,13.27,6.52,18.4,18.4,0,0,0,4.74-.48c2.18-.6,2.58-1.3,2.72-3.38.41-5.72,3.32-11.39,6-16.35,6.15-12,17.78-27.88,31.92-43.54,15.73-17.71,32.06-32.66,44.81-41a1.21,1.21,0,0,0,.58-1A1.22,1.22,0,0,0,116.33,50.58Z"/><path class="cls-2" d="M119,56.2h0a1.22,1.22,0,0,0-.7.26c-8.29,6-28.52,24.35-47.6,46.33C57.87,117.5,43.8,134.16,37.79,153c-2.16,6.79-2.49,12.95,2,18.9a17.91,17.91,0,0,0,14.67,6.91c9.63,0,21-5.81,29.62-15.16a1.24,1.24,0,0,0,.3-1.07,1.2,1.2,0,0,0-.68-.88c-6.28-3-12.5-3.92-17.5-4.66-4.82-.72-8.63-1.29-9.89-3.34-.8-1.29-.71-3.37.27-6.36,1.24-3.75,3.43-4.19,5-4.19,6,0,16.24,7.75,25.42,15a1.2,1.2,0,0,0,.76.27h.18a1.24,1.24,0,0,0,.83-.51c3.79-5.4,7-12.65,9.89-22.17a1.24,1.24,0,0,0-.68-1.49c-6-2.63-11.84-2.9-16.54-3.13-4-.18-7.12-.33-8.27-1.85-.72-.95-.8-2.62-.23-5.11.63-2.72,2-3.93,4.33-3.93,5,0,13.55,5.38,21.17,10.43a1.18,1.18,0,0,0,.67.21,1.32,1.32,0,0,0,.44-.08,1.22,1.22,0,0,0,.75-.84c2-7.34,3.65-15.34,5.28-23.08l.35-1.66a1.2,1.2,0,0,0-.23-1,1.23,1.23,0,0,0-.91-.48c-.42,0-.86,0-1.29,0a40.09,40.09,0,0,0-11.88,2.22,21.45,21.45,0,0,1-5.3,1.21c-.89,0-2.25,0-2.51-3.9a3.69,3.69,0,0,1,.77-2.91c.86-.92,2.54-1.39,5-1.39,4.27,0,10.4,1.42,15.81,2.75a1.53,1.53,0,0,0,.3,0,1.28,1.28,0,0,0,.65-.18,1.25,1.25,0,0,0,.55-.79c1.11-5.22,2.46-11.34,4-17.21a1.24,1.24,0,0,0-.31-1.16,1.23,1.23,0,0,0-.88-.38,1.24,1.24,0,0,0-.27,0c-1.58.35-3,.79-4.31,1.18a17.25,17.25,0,0,1-4.17,1c-.7,0-1.57,0-1.77-2.89a2.74,2.74,0,0,1,.56-2.13c.63-.69,1.92-1,3.82-1a37.74,37.74,0,0,1,7.35,1,1.07,1.07,0,0,0,.25,0,1.23,1.23,0,0,0,1.18-.89,102.77,102.77,0,0,1,7.81-20.17,1.24,1.24,0,0,0,.17-.63A1.22,1.22,0,0,0,119,56.2Z"/><path class="cls-3" d="M181,126.08c-18.34,0-31.15-13.25-31.15-32.21,0-18.37,13.35-32.22,31.06-32.22a35.16,35.16,0,0,1,17.7,4.41,1.25,1.25,0,0,1,.62,1l.35,12.83a1.21,1.21,0,0,1-.34.89,1.25,1.25,0,0,1-.89.38h-5.4a1.23,1.23,0,0,1-1.21-1l-1.62-9.56A17.33,17.33,0,0,0,182,68.54c-12.38,0-20.38,9.94-20.38,25.33,0,15.86,7.39,25.33,19.76,25.33a23.33,23.33,0,0,0,9.65-2.06l1.62-9.58a1.22,1.22,0,0,1,1.21-1h5.4a1.22,1.22,0,0,1,.88.37,1.24,1.24,0,0,1,.35.89l-.35,12.84a1.25,1.25,0,0,1-.65,1A38.53,38.53,0,0,1,181,126.08Z"/><path class="cls-3" d="M219.58,125.9c-7.83,0-13.1-4.94-13.1-12.29,0-6.36,4.3-10.4,15.33-14.44,2.76-1,6.19-2,9.38-2.78v-1.2c0-2.59.08-6.36-2.06-8.27s-5.32-1.49-7.77-1.12c-1.91.29-2.38,4-2.82,5.41-1,3.27-2.87,4.86-5.69,4.86a5.65,5.65,0,0,1-3-.77,4.58,4.58,0,0,1-1.82-2.14,5.34,5.34,0,0,1-.3-1,3.33,3.33,0,0,1-.09-1.09c0-.24,0-.48.08-.71a9.06,9.06,0,0,1,.31-1.37,9.51,9.51,0,0,1,1.21-2.53,12.37,12.37,0,0,1,1.91-2.24,15.44,15.44,0,0,1,2.52-1.88,19.64,19.64,0,0,1,3-1.5,24,24,0,0,1,3.41-1,24.49,24.49,0,0,1,3.7-.56c.71-.06,1.43-.09,2.14-.09,10.22,0,14.78,5.1,14.78,16.54V114.5c0,4.17,1.38,4.17,2,4.17.91,0,1.57-.4,2.52-1.52a1.21,1.21,0,0,1,.94-.43,1.24,1.24,0,0,1,.91.4l1.77,1.95a1.24,1.24,0,0,1,.13,1.48c-2.23,3.52-4.87,5.09-8.57,5.09a8.72,8.72,0,0,1-8.5-5.74C227.59,124,224.48,125.9,219.58,125.9Zm11.61-23.64c-2.68.77-5.18,1.64-6.64,2.22-8.08,3.14-8.08,6.35-8.08,7.89,0,3.53,2,5.32,5.94,5.32,2.5,0,4-.81,8.78-4.22Z"/><path class="cls-3" d="M282.07,124.75a1.23,1.23,0,0,1-1.23-1.23v-3.09a1.22,1.22,0,0,1,1-1.21l5.69-1c.08-4.24.12-9.47.12-13.25V97.5c0-8.17-2.09-9.66-6.21-9.66-3.71,0-6.88,1.37-11.17,4.86v12.23c0,3.66,0,8.93.12,13.22l5.36,1.07a1.24,1.24,0,0,1,1,1.21v3.09a1.23,1.23,0,0,1-1.23,1.23H255.15a1.23,1.23,0,0,1-1.23-1.23v-3.09a1.23,1.23,0,0,1,1-1.21l5.69-1c.08-4.29.12-9.58.12-13.25v-4.16c0-4.41-.07-7-.21-10l-6-.68a1.23,1.23,0,0,1-1.1-1.22v-3.1a1.21,1.21,0,0,1,.74-1.12l12-5.31a1.09,1.09,0,0,1,.49-.11,1.24,1.24,0,0,1,.69.21l1.32.88a1.22,1.22,0,0,1,.55.9l.47,4.59c4.5-4.1,10.07-6.58,15-6.58,8.51,0,12.47,5.59,12.47,17.61v8.14c0,3.77,0,9,.12,13.22l5.35,1.07a1.23,1.23,0,0,1,1,1.21v3.09a1.23,1.23,0,0,1-1.23,1.23Z"/><path class="cls-3" d="M327.78,125.9c-10.32,0-21.42-7.25-21.42-23.18,0-15.45,10.78-23.54,21.42-23.54s21.41,8.09,21.41,23.54C349.19,117.94,338.42,125.9,327.78,125.9Zm0-40.28c-9.08,0-11,9.3-11,17.1,0,7.64,1.91,16.74,11,16.74s11-9.1,11-16.74C338.77,96.33,337.34,85.62,327.78,85.62Z"/><path class="cls-3" d="M352.68,146a1.23,1.23,0,0,1-1.23-1.23v-3.1a1.24,1.24,0,0,1,1-1.21l6.28-1.11q.13-6.58.14-13.17V100.77c0-4.41-.07-7-.22-10l-6-.68a1.22,1.22,0,0,1-1.09-1.22v-3.1a1.22,1.22,0,0,1,.73-1.12l12-5.31a1.1,1.1,0,0,1,.5-.11,1.19,1.19,0,0,1,.68.21l1.33.88a1.2,1.2,0,0,1,.54.91l.3,3.17a18.3,18.3,0,0,1,12.47-5.17c10.62,0,18.05,9.53,18.05,23.19,0,13.86-8,23.53-19.38,23.53a15.36,15.36,0,0,1-10.64-4.07V126c0,4.38,0,8.85.14,13.28l7.24,1.18a1.22,1.22,0,0,1,1,1.21v3.1a1.23,1.23,0,0,1-1.23,1.23Zm15.75-31.4c2.91,2.67,5.78,4,8.77,4,6.88,0,11-5.77,11-15.42,0-10.11-3.93-16.65-10-16.65-2.87,0-6.06,1.43-9.75,4.37Z"/><path class="cls-3" d="M409.08,146.89c-5.29,0-9.29-3-9.29-7.08a1.35,1.35,0,0,1,0-.29c.71-2.83,2.39-5.79,6-5.79a10.49,10.49,0,0,1,7.68,2.87c2.82-2.68,4.44-7.41,6.24-12.46l.24-.67L405.39,86.52l-4.2-.65a1.22,1.22,0,0,1-1-1.21v-3.1a1.23,1.23,0,0,1,1.23-1.23h21.07a1.23,1.23,0,0,1,1.23,1.23v3.19A1.23,1.23,0,0,1,422.59,86l-7.38.54,9.17,24.56,9-24.56-4.61-.63a1.24,1.24,0,0,1-1.06-1.22v-3.1a1.23,1.23,0,0,1,1.23-1.23h17.35a1.23,1.23,0,0,1,1.23,1.23v3.1a1.22,1.22,0,0,1-1,1.2l-4.1.88-13.95,36.69C423,137.91,417.85,146.89,409.08,146.89Z"/><path class="cls-3" d="M175,187.15a1.7,1.7,0,0,1-.46,1.21,1.42,1.42,0,0,1-1.05.47,1.29,1.29,0,0,1-.85-.31,2.17,2.17,0,0,1-.62-.86l-2.07-5.36H159.56l-2,5.4a1.61,1.61,0,0,1-.55.84,1.52,1.52,0,0,1-1.92-.11,1.59,1.59,0,0,1-.37-1.1,4.13,4.13,0,0,1,.07-.58l8.53-22.53a2,2,0,0,1,.65-.89,1.32,1.32,0,0,1,.95-.24,1.44,1.44,0,0,1,.9.3,1.52,1.52,0,0,1,.57.83l8.5,22.24A2.61,2.61,0,0,1,175,187.15ZM160.83,179h7.79l-3.91-10.21Z"/><path class="cls-3" d="M209.88,163.66a1.66,1.66,0,0,1,.4,1.15v22.12a1.87,1.87,0,0,1-.45,1.28,1.48,1.48,0,0,1-1.16.51,1.94,1.94,0,0,1-.71-.13,1.19,1.19,0,0,1-.56-.38l-13.14-18.66v17.57a1.64,1.64,0,0,1-.41,1.14,1.36,1.36,0,0,1-1.06.46,1.28,1.28,0,0,1-1-.46,1.64,1.64,0,0,1-.41-1.14V165a1.72,1.72,0,0,1,.46-1.25,1.45,1.45,0,0,1,1.12-.5,1.91,1.91,0,0,1,.77.17,1.33,1.33,0,0,1,.56.45l13.11,18.7V164.81a1.63,1.63,0,0,1,.42-1.15,1.39,1.39,0,0,1,1.05-.46A1.33,1.33,0,0,1,209.88,163.66Z"/><path class="cls-3" d="M247,187.15a1.69,1.69,0,0,1-.45,1.21,1.42,1.42,0,0,1-1.05.47,1.32,1.32,0,0,1-.86-.31,2.27,2.27,0,0,1-.62-.86l-2.07-5.36H231.57l-2,5.4a1.68,1.68,0,0,1-.55.84,1.41,1.41,0,0,1-.85.29,1.36,1.36,0,0,1-1.07-.4,1.54,1.54,0,0,1-.37-1.1,5.5,5.5,0,0,1,.06-.58l8.53-22.53a2.09,2.09,0,0,1,.65-.89,1.34,1.34,0,0,1,1-.24,1.48,1.48,0,0,1,.9.3,1.52,1.52,0,0,1,.57.83l8.49,22.24A2.26,2.26,0,0,1,247,187.15ZM232.84,179h7.79l-3.91-10.21Z"/><path class="cls-3" d="M277.42,185.8a1.73,1.73,0,0,1,.45,1.24,1.69,1.69,0,0,1-.45,1.21,1.53,1.53,0,0,1-1.15.47H265a1.48,1.48,0,0,1-1.16-.51,1.8,1.8,0,0,1-.45-1.24V165a1.79,1.79,0,0,1,.47-1.24,1.55,1.55,0,0,1,1.2-.51,1.52,1.52,0,0,1,1.15.51,1.72,1.72,0,0,1,.49,1.24v20.38h9.6A1.53,1.53,0,0,1,277.42,185.8Z"/><path class="cls-3" d="M308.56,165.94l-7.19,11v10a1.8,1.8,0,0,1-.45,1.24,1.41,1.41,0,0,1-1.09.51,1.48,1.48,0,0,1-1.14-.51,1.77,1.77,0,0,1-.47-1.24V176.69l-7.15-10.53a2.29,2.29,0,0,1-.47-1.32,1.82,1.82,0,0,1,1.71-1.75,1.55,1.55,0,0,1,1.3.81l6.29,9.47,6.05-9.44a1.56,1.56,0,0,1,1.34-.84,1.42,1.42,0,0,1,1.1.52,1.77,1.77,0,0,1,.47,1.23A2.28,2.28,0,0,1,308.56,165.94Z"/><path class="cls-3" d="M341.9,163.66a1.61,1.61,0,0,1,.45,1.22,1.53,1.53,0,0,1-1.6,1.64H334.8V187a1.7,1.7,0,0,1-.49,1.24,1.71,1.71,0,0,1-2.44,0,1.74,1.74,0,0,1-.48-1.24V166.52h-5.92a1.59,1.59,0,0,1-1.16-.45,1.69,1.69,0,0,1-.45-1.23,1.56,1.56,0,0,1,1.61-1.64h15.28A1.56,1.56,0,0,1,341.9,163.66Z"/><path class="cls-3" d="M362,188.21a1.61,1.61,0,0,1-1.17.51,1.51,1.51,0,0,1-1.19-.51,1.87,1.87,0,0,1-.45-1.28V165a1.79,1.79,0,0,1,.47-1.24,1.55,1.55,0,0,1,1.2-.51,1.52,1.52,0,0,1,1.15.51,1.72,1.72,0,0,1,.49,1.24v22A1.77,1.77,0,0,1,362,188.21Z"/><path class="cls-3" d="M398.61,166.16a2.06,2.06,0,0,1-.4,1.2,1.27,1.27,0,0,1-1.1.58,1.76,1.76,0,0,1-.91-.25,8.38,8.38,0,0,0-4.48-1.28A7.93,7.93,0,0,0,384.3,171a11,11,0,0,0-1.07,5,11.48,11.48,0,0,0,1.1,5.21,8,8,0,0,0,3,3.34,8.37,8.37,0,0,0,4.35,1.15,8,8,0,0,0,4.48-1.31,1.76,1.76,0,0,1,.87-.22,1.34,1.34,0,0,1,1.17.62,1.9,1.9,0,0,1,.4,1.16,1.67,1.67,0,0,1-.21.82,1.62,1.62,0,0,1-.59.6,11.81,11.81,0,0,1-2.93,1.28,11.16,11.16,0,0,1-3.19.47,11.82,11.82,0,0,1-6-1.56A11.53,11.53,0,0,1,381.4,183a14.59,14.59,0,0,1-1.62-7,14.09,14.09,0,0,1,1.56-6.65,11.78,11.78,0,0,1,4.28-4.67,11.66,11.66,0,0,1,12.19.06A1.58,1.58,0,0,1,398.61,166.16Z"/><path class="cls-3" d="M418.26,188.34a10.94,10.94,0,0,1-3.58-2.43,2,2,0,0,1-.7-1.49,1.78,1.78,0,0,1,.47-1.19,1.44,1.44,0,0,1,1.1-.53,1.31,1.31,0,0,1,1,.41,9.23,9.23,0,0,0,2.76,2,7.76,7.76,0,0,0,3.23.64,5.87,5.87,0,0,0,3.56-1.06,3.16,3.16,0,0,0,1.45-2.66,3.48,3.48,0,0,0-1.45-2.93,12.36,12.36,0,0,0-4.33-1.73,11,11,0,0,1-5.3-2.52,6.32,6.32,0,0,1-1.85-4.85,6.65,6.65,0,0,1,3.91-6.27,9.53,9.53,0,0,1,4.14-.87,10.38,10.38,0,0,1,3.91.73,8.1,8.1,0,0,1,3,1.93,2.17,2.17,0,0,1,.77,1.57,1.69,1.69,0,0,1-.45,1.16,1.41,1.41,0,0,1-1.09.51,1,1,0,0,1-.77-.29,6.94,6.94,0,0,0-2.4-1.6,7.5,7.5,0,0,0-2.95-.66,5.74,5.74,0,0,0-3.56,1,3.39,3.39,0,0,0,0,5.37,11.88,11.88,0,0,0,3.93,1.61,19.82,19.82,0,0,1,4.26,1.45,6.12,6.12,0,0,1,2.56,2.34,7.46,7.46,0,0,1,.9,3.9,6.65,6.65,0,0,1-1.08,3.75,7.22,7.22,0,0,1-3,2.55,9.24,9.24,0,0,1-4.11.91A11.57,11.57,0,0,1,418.26,188.34Z"/></svg>